<svg xmlns="http://www.w3.org/2000/svg" viewBox="0 0 475.33 394.76"><defs><style>.a{stroke:#000;stroke-miterlimit:10;stroke-width:12px;}</style></defs><path class="a ql-fill ql-stroke" d="M426.64,154.68H64A50.42,50.42,0,0,0,13.67,205v80.58A50.42,50.42,0,0,0,64,336H426.64A50.42,50.42,0,0,0,477,285.62V205A50.42,50.42,0,0,0,426.64,154.68Zm30.22,130.94a30.26,30.26,0,0,1-30.22,30.22H64a30.26,30.26,0,0,1-30.22-30.22V205A30.25,30.25,0,0,1,64,174.83H426.64A30.25,30.25,0,0,1,456.86,205Z" transform="translate(-7.67 -47.96)"/><path class="a ql-fill ql-stroke" d="M245.33,54A10.07,10.07,0,0,0,235.26,64V164.75a10.08,10.08,0,1,0,20.15,0V64A10.08,10.08,0,0,0,245.33,54Z" transform="translate(-7.67 -47.96)"/><path class="a ql-fill ql-stroke" d="M245.33,315.84a10.07,10.07,0,0,0-10.07,10.07V426.64a10.08,10.08,0,0,0,20.15,0V325.91A10.08,10.08,0,0,0,245.33,315.84Z" transform="translate(-7.67 -47.96)"/><path class="a ql-fill ql-stroke" d="M345.17,162.07C326.72,95.37,288.48,54,245.33,54S164,95.37,145.49,162.07a10.06,10.06,0,1,0,19.4,5.36c15.7-56.69,47.28-93.33,80.44-93.33s64.75,36.64,80.46,93.33a10,10,0,0,0,9.69,7.4,10.42,10.42,0,0,0,2.68-.37A10.05,10.05,0,0,0,345.17,162.07Z" transform="translate(-7.67 -47.96)"/><path class="a ql-fill ql-stroke" d="M338.16,316.2a10.07,10.07,0,0,0-12.39,7c-15.69,56.69-47.28,93.34-80.44,93.34s-64.74-36.65-80.44-93.34a10.06,10.06,0,1,0-19.4,5.36c18.46,66.7,56.69,108.12,99.84,108.12s81.39-41.42,99.84-108.12A10.06,10.06,0,0,0,338.16,316.2Z" transform="translate(-7.67 -47.96)"/><path class="a ql-fill ql-stroke" d="M416.59,160.26C384,94.69,318.34,54,245.33,54S106.72,94.69,74.08,160.28a10.07,10.07,0,1,0,18,9C121.32,110.56,180,74.1,245.33,74.1s124,36.46,153.25,95.15a10,10,0,0,0,9,5.58,9.93,9.93,0,0,0,4.47-1.07A10.08,10.08,0,0,0,416.59,160.26Z" transform="translate(-7.67 -47.96)"/><path class="a ql-fill ql-stroke" d="M412.05,316.89a10.06,10.06,0,0,0-13.49,4.53c-29.21,58.68-87.92,95.15-153.23,95.15s-124-36.47-153.22-95.13a10.07,10.07,0,0,0-18,9c32.64,65.57,98.25,106.3,171.25,106.3S384,396,416.59,330.39A10.08,10.08,0,0,0,412.05,316.89Z" transform="translate(-7.67 -47.96)"/><path class="a ql-fill ql-stroke" d="M288,195.27a10,10,0,0,0-12.21,7.34l-11.74,47L254.88,222c-2.74-8.22-16.36-8.22-19.11,0l-9.21,27.61-11.74-47a10.07,10.07,0,0,0-19.55,4.87l20.15,80.58a10.09,10.09,0,0,0,9.39,7.62,9.43,9.43,0,0,0,9.95-6.87L245.33,257l10.58,31.77a10.09,10.09,0,0,0,9.57,6.89,2.06,2.06,0,0,0,.36,0,10.08,10.08,0,0,0,9.39-7.62l20.14-80.58A10,10,0,0,0,288,195.27Z" transform="translate(-7.67 -47.96)"/><path class="a ql-fill ql-stroke" d="M167.19,195.27A10,10,0,0,0,155,202.61l-11.74,47L134,222c-2.74-8.22-16.36-8.22-19.11,0l-9.21,27.61L94,202.61a10.07,10.07,0,1,0-19.54,4.87l20.14,80.58a10.09,10.09,0,0,0,9.39,7.62c5.34.22,8.54-2.64,10-6.87L124.46,257,135,288.81a10.09,10.09,0,0,0,9.57,6.89,2.42,2.42,0,0,0,.38,0,10.08,10.08,0,0,0,9.39-7.62l20.14-80.58A10,10,0,0,0,167.19,195.27Z" transform="translate(-7.67 -47.96)"/><path class="a ql-fill ql-stroke" d="M408.91,195.27a10,10,0,0,0-12.21,7.34l-11.74,47L375.75,222c-2.74-8.22-16.36-8.22-19.11,0l-9.21,27.61-11.74-47a10.07,10.07,0,0,0-19.55,4.87l20.15,80.58a10.09,10.09,0,0,0,9.39,7.62,9.5,9.5,0,0,0,9.95-6.87L366.2,257l10.58,31.77a10.09,10.09,0,0,0,9.57,6.89,2.06,2.06,0,0,0,.36,0,10.08,10.08,0,0,0,9.39-7.62l20.14-80.58A10,10,0,0,0,408.91,195.27Z" transform="translate(-7.67 -47.96)"/></svg>