<?xml version="1.0" encoding="utf-8"?>
<!DOCTYPE svg PUBLIC "-//W3C//DTD SVG 1.1//EN" "http://www.w3.org/Graphics/SVG/1.1/DTD/svg11.dtd">
<svg version="1.1" xmlns="http://www.w3.org/2000/svg" xmlns:xlink="http://www.w3.org/1999/xlink" x="0px" y="0px" viewBox="0 0 1000 1000" enable-background="new 0 0 1000 1000" xml:space="preserve">
<g><g class="ql-fill" transform="translate(0.000000,511.000000) scale(0.100000,-0.100000)"><path d="M5362.3,4997.5c-1429.2-94.6-2559.6-475.5-2860.8-961.1c-94.6-154.4-117-363.5-52.3-532.8c89.6-236.5,495.5-535.3,916.3-677.2l129.5-44.8l7.5-2469.9l5-2467.4l-67.2-27.4c-246.5-94.6-385.9-104.6-1239.9-109.5c-829.1-2.5-851.5-5-1085.6-67.2c-328.7-89.6-510.4-179.3-662.3-331.2c-129.5-132-206.7-303.8-206.7-463.1c0-226.6,209.1-592.6,453.2-801.7c194.2-164.3,420.8-316.2,470.6-316.2c82.2,0,169.3,54.8,199.2,127c42.3,104.6-5,194.2-146.9,283.8C927.8-3674.6,644-3328.6,644-3154.3c0,166.8,186.7,308.7,540.3,405.9c179.3,49.8,254,54.8,978.5,57.3c430.7,2.5,846.6,12.5,921.2,22.4l136.9,17.4l-176.8-89.6c-236.5-119.5-450.7-296.3-545.3-445.7c-59.8-99.6-74.7-154.4-82.2-298.8c-7.5-164.3-2.5-186.7,74.7-313.7c268.9-443.2,1142.8-786.8,2385.3-933.7c465.6-54.8,1439.1-74.7,1929.6-39.8c1322.1,97.1,2270.8,376,2704,799.2c139.4,136.9,174.3,186.7,209.2,308.7c117,405.9-189.2,769.4-876.4,1038.3l-206.6,79.7V109.9v2656.7l236.5,92.1c450.7,179.3,771.9,443.2,846.6,694.7c47.3,159.4,47.3,204.2-5,356.1c-59.8,174.3-308.7,418.3-567.7,550.3c-525.3,271.4-1334.5,458.1-2278.2,530.3C6562.4,5012.5,5663.5,5017.4,5362.3,4997.5z M6906,4591.7c1135.4-97.1,2056.6-366,2355.4-689.7c92.1-99.6,102.1-122,89.6-201.7c-39.9-231.6-448.2-460.6-1152.8-642.4C6637.1,2659.5,4281.7,2784,3206,3324.3c-338.6,169.3-455.6,313.7-385.9,478C2967,4156,4065,4504.5,5324.9,4599.1C5593.8,4619.1,6632.1,4614.1,6906,4591.7z M4254.3,2589.8c572.7-112,998.4-149.4,1792.7-149.4c445.7-2.5,856.5,10,1045.7,29.9c268.9,29.9,859,122,1078.1,169.3c64.8,14.9,67.2,10,67.2-74.7s-5-89.6-129.5-124.5c-1093-313.7-2990.3-313.7-4070.9-2.5c-127,37.3-132,42.3-132,124.5c0,47.3,7.5,87.1,19.9,87.1C3935.6,2649.6,4082.5,2622.2,4254.3,2589.8z M4241.8,1992.3c328.7-87.1,722.1-136.9,1309.7-169.3c963.6-52.3,2163.7,57.3,2654.2,246.5c57.3,22.4,37.4-127-24.9-186.7c-79.7-74.7-313.7-174.3-577.6-244c-966.1-254-2382.8-226.6-3266.7,67.2c-293.8,97.1-430.7,191.7-430.7,298.8c0,69.7,7.5,77.2,57.3,62.3C3992.8,2057,4119.8,2024.6,4241.8,1992.3z M4127.3,1367.3c204.2-84.7,550.3-174.3,903.8-229.1c405.8-64.7,1675.7-64.7,2086.5,0c368.5,57.3,739.5,151.9,953.6,241.5l166.8,69.7V1320c0-156.9-19.9-179.3-249-286.3c-380.9-176.8-948.6-273.9-1705.5-293.8c-908.8-22.4-1663.2,84.7-2143.8,303.8c-191.7,84.7-234,136.9-234,288.8c0,92.1,7.5,124.5,32.4,114.5C3953,1439.5,4040.1,1402.2,4127.3,1367.3z M4189.5,602.9c433.2-159.4,961.1-241.5,1670.7-261.4c886.4-24.9,1737.9,92.1,2213.5,301.3c79.6,34.8,149.4,64.7,154.4,64.7c5,0,10-62.2,10-136.9c0-136.9-2.5-139.4-112-209.2c-127-79.7-425.8-184.2-692.2-241.5C6350.7-109.2,4874.2-27,4154.7,299.2c-206.7,94.6-249,144.4-249,291.3c0,107.1,5,119.5,44.8,104.6C3972.9,685.1,4082.5,645.3,4189.5,602.9z M4391.2-201.3c565.2-164.3,1399.3-239,2121.4-191.7c684.7,44.8,1225,149.4,1571.1,306.3L8238-17v-132c0-156.9-39.8-204.2-261.4-301.3c-652.4-288.8-1996.9-383.4-3025.2-209.2c-371,62.2-809.2,201.7-946.2,298.8c-94.6,69.7-99.6,79.7-99.6,209.2V-17l132-59.7C4107.4-109.2,4269.2-166.4,4391.2-201.3z M4127.3-848.6c204.2-84.7,550.3-174.3,903.8-229.1c405.8-64.7,1675.7-64.7,2086.5,0c376,59.8,734.5,149.4,948.6,241.5L8238-764v-132c0-156.9-22.4-181.8-256.4-288.8c-393.4-176.8-938.7-271.4-1698.1-291.3c-906.3-22.4-1663.2,82.1-2143.8,303.8c-191.7,84.6-234,136.9-234,288.8c0,92.1,7.5,124.5,32.4,114.5C3953-776.5,4040.1-813.8,4127.3-848.6z M4189.5-1613c507.9-186.7,1003.4-254,1882.3-254c1000.9,0,1493.9,79.7,2136.3,351.1c22.4,10,29.9-24.9,29.9-124.5c0-124.5-7.5-144.4-74.7-191.7c-283.8-201.7-1025.8-358.6-1842.5-388.4c-993.5-37.4-2069.1,154.4-2357.9,420.8c-44.8,39.8-57.3,77.2-57.3,174.3c0,107.1,5,119.5,44.8,104.6C3972.9-1530.9,4082.5-1570.7,4189.5-1613z M4391.2-2417.2c562.7-161.8,1414.2-239,2133.8-191.7c677.3,44.8,1215,151.9,1558.7,306.2L8238-2233v-132c0-156.9-39.8-204.2-261.4-301.3c-652.4-288.8-1996.9-383.4-3025.2-209.2c-371,62.3-809.2,201.7-946.2,298.8c-94.6,69.7-99.6,79.7-99.6,209.2v134.4l132-59.7C4107.4-2325.1,4269.2-2382.4,4391.2-2417.2z M3507.3-3139.3c0-159.4,2.5-166.8,114.5-286.3c149.4-159.4,306.2-259,560.2-351.1c438.2-159.4,958.6-241.5,1665.7-263.9c1254.9-34.8,2250.8,181.8,2651.7,577.7l137,136.9v176.8c0,201.7-10,199.2,261.4,69.7c283.8-132,460.6-303.8,460.6-445.7c0-82.1-186.7-261.4-373.5-358.5c-366-194.2-1003.4-361-1730.4-455.6c-488-62.2-1892.3-62.2-2365.4,0c-1115.4,149.4-1909.7,435.7-2061.6,744.5c-42.3,87.1-42.3,97.1-5,181.8c24.9,47.3,94.6,124.5,159.3,171.8c109.6,79.7,460.6,263.9,505.4,263.9C3497.4-2977.5,3507.3-3049.7,3507.3-3139.3z M4127.3-3064.6c201.7-84.7,540.3-169.3,886.4-224.1c408.3-64.8,1439.1-79.7,1889.8-27.4c440.7,49.8,869,146.9,1130.4,251.5l204.2,82.2V-3087c0-129.5-32.4-161.8-256.4-263.9c-196.7-89.6-555.2-184.3-901.3-239c-338.6-52.3-1264.8-74.7-1643.3-37.4c-699.6,67.2-1314.6,234-1479,398.3c-59.8,59.8-77.2,268.9-19.9,244C3953-2992.4,4040.1-3029.8,4127.3-3064.6z"/><path d="M5561.4,4193.3c-585.1-64.7-908.8-234-908.8-473.1c0-261.4,338.6-415.8,1055.7-475.6c425.7-37.4,953.6-5,1272.3,77.2c393.4,99.6,575.1,268.9,512.9,473.1c-52.3,174.3-263.9,288.8-667.3,363.5C6567.4,4203.3,5845.3,4223.2,5561.4,4193.3z M6806.4,3762.6c82.2-17.4,136.9-37.4,124.5-47.3c-134.5-79.7-1115.4-112-1501.4-47.3c-112,17.4-211.6,42.3-216.6,52.3c-7.5,10,84.7,32.4,206.7,49.8c119.5,14.9,234.1,32.4,254,37.3C5760.6,3829.8,6669.4,3792.4,6806.4,3762.6z"/></g></g>
</svg>