<?xml version="1.0" encoding="utf-8"?>
<!-- Generator: Adobe Illustrator 24.2.3, SVG Export Plug-In . SVG Version: 6.00 Build 0)  -->
<svg version="1.1" id="Layer_1" xmlns="http://www.w3.org/2000/svg" xmlns:xlink="http://www.w3.org/1999/xlink" x="0px" y="0px"
	 viewBox="0 0 48 48" style="enable-background:new 0 0 48 48;" xml:space="preserve">
<path class="ql-fill" d="M24,0C10.7,0,0,10.7,0,24s10.7,24,24,24s24-10.7,24-24S37.3,0,24,0z M31,28c-3.2,4.2-6,6.3-8.2,6.3c-1.4,0-2.6-1.3-3.5-3.8
	c-0.6-2.3-1.3-4.7-1.9-7c-0.7-2.6-1.5-3.8-2.3-3.8c-0.2,0-0.8,0.4-1.9,1.1l-1.1-1.4c1.2-1,2.3-2.1,3.5-3.1c1.6-1.4,2.7-2.1,3.5-2.1
	c1.8-0.2,3,1.1,3.4,3.8c0.5,2.9,0.8,4.7,1,5.4c0.5,2.4,1.1,3.6,1.8,3.6c0.5,0,1.2-0.8,2.2-2.3c1-1.6,1.5-2.8,1.6-3.6
	c0.1-1.3-0.4-2-1.6-2c-0.6,0-1.2,0.1-1.8,0.4c1.2-3.8,3.4-5.6,6.7-5.5c2.5-0.2,3.6,1.4,3.5,4.5C35.8,20.8,34.1,24,31,28z"/>
</svg>
